<?xml version="1.0" encoding="UTF-8" standalone="no"?><svg xmlns="http://www.w3.org/2000/svg" xmlns:xlink="http://www.w3.org/1999/xlink" contentScriptType="application/ecmascript" contentStyleType="text/css" height="490px" preserveAspectRatio="none" style="width:1107px;height:490px;" version="1.1" viewBox="0 0 1107 490" width="1107px" zoomAndPan="magnify"><defs><filter height="300%" id="fbhzw5crfox59" width="300%" x="-1" y="-1"><feGaussianBlur result="blurOut" stdDeviation="2.0"/><feColorMatrix in="blurOut" result="blurOut2" type="matrix" values="0 0 0 0 0 0 0 0 0 0 0 0 0 0 0 0 0 0 .4 0"/><feOffset dx="4.0" dy="4.0" in="blurOut2" result="blurOut3"/><feBlend in="SourceGraphic" in2="blurOut3" mode="normal"/></filter></defs><g><!--MD5=[984022a34e6d3c5630607d29f9ef9e08]
cluster quasar::named--><polygon fill="#FFFFFF" filter="url(#fbhzw5crfox59)" points="22,24,147,24,154,46.2969,535,46.2969,535,478,22,478,22,24" style="stroke: #000000; stroke-width: 1.5;"/><line style="stroke: #000000; stroke-width: 1.5;" x1="22" x2="154" y1="46.2969" y2="46.2969"/><text fill="#000000" font-family="sans-serif" font-size="14" font-weight="bold" lengthAdjust="spacingAndGlyphs" textLength="119" x="26" y="38.9951">quasar::named</text><!--MD5=[9c085c6fd96893e31723b328c7e8cca0]
cluster quasar::scripting--><polygon fill="#FFFFFF" filter="url(#fbhzw5crfox59)" points="559,353,700,353,707,375.2969,1085,375.2969,1085,478,559,478,559,353" style="stroke: #000000; stroke-width: 1.5;"/><line style="stroke: #000000; stroke-width: 1.5;" x1="559" x2="707" y1="375.2969" y2="375.2969"/><text fill="#000000" font-family="sans-serif" font-size="14" font-weight="bold" lengthAdjust="spacingAndGlyphs" textLength="135" x="563" y="367.9951">quasar::scripting</text><!--MD5=[5cc06ecdd9480702b567e3f11ad511a4]
class NamedObject--><rect fill="#FEFECE" filter="url(#fbhzw5crfox59)" height="112.0234" id="NamedObject" style="stroke: #A80036; stroke-width: 1.5;" width="287" x="227.5" y="59"/><ellipse cx="324.75" cy="75" fill="#ADD1B2" rx="11" ry="11" style="stroke: #A80036; stroke-width: 1.0;"/><path d="M327.7188,80.6406 Q327.1406,80.9375 326.5,81.0781 Q325.8594,81.2344 325.1563,81.2344 Q322.6563,81.2344 321.3281,79.5938 Q320.0156,77.9375 320.0156,74.8125 Q320.0156,71.6875 321.3281,70.0313 Q322.6563,68.375 325.1563,68.375 Q325.8594,68.375 326.5,68.5313 Q327.1563,68.6875 327.7188,68.9844 L327.7188,71.7031 Q327.0938,71.125 326.5,70.8594 Q325.9063,70.5781 325.2813,70.5781 Q323.9375,70.5781 323.25,71.6563 Q322.5625,72.7188 322.5625,74.8125 Q322.5625,76.9063 323.25,77.9844 Q323.9375,79.0469 325.2813,79.0469 Q325.9063,79.0469 326.5,78.7813 Q327.0938,78.5 327.7188,77.9219 L327.7188,80.6406 Z "/><text fill="#000000" font-family="sans-serif" font-size="12" lengthAdjust="spacingAndGlyphs" textLength="84" x="345.25" y="79.1543">NamedObject</text><line style="stroke: #A80036; stroke-width: 1.5;" x1="228.5" x2="513.5" y1="91" y2="91"/><polygon fill="none" points="238.5,97,242.5,101,238.5,105,234.5,101" style="stroke: #B38D22; stroke-width: 1.0;"/><text fill="#000000" font-family="sans-serif" font-size="11" lengthAdjust="spacingAndGlyphs" textLength="90" x="247.5" y="105.2104">m_name: string</text><polygon fill="none" points="238.5,109.8047,242.5,113.8047,238.5,117.8047,234.5,113.8047" style="stroke: #B38D22; stroke-width: 1.0;"/><text fill="#000000" font-family="sans-serif" font-size="11" lengthAdjust="spacingAndGlyphs" textLength="261" x="247.5" y="118.0151">m_children: list&lt;shared_ptr&lt;NamedObject&gt;&gt;</text><polygon fill="none" points="238.5,122.6094,242.5,126.6094,238.5,130.6094,234.5,126.6094" style="stroke: #B38D22; stroke-width: 1.0;"/><text fill="#000000" font-family="sans-serif" font-size="11" lengthAdjust="spacingAndGlyphs" textLength="154" x="247.5" y="130.8198">m_mutex: recursive_mutex</text><line style="stroke: #A80036; stroke-width: 1.5;" x1="228.5" x2="513.5" y1="137.4141" y2="137.4141"/><ellipse cx="238.5" cy="148.4141" fill="#84BE84" rx="3" ry="3" style="stroke: #038048; stroke-width: 1.0;"/><text fill="#000000" font-family="sans-serif" font-size="11" lengthAdjust="spacingAndGlyphs" textLength="100" x="247.5" y="151.6245">getName(): string</text><ellipse cx="238.5" cy="161.2188" fill="#84BE84" rx="3" ry="3" style="stroke: #038048; stroke-width: 1.0;"/><text fill="#000000" font-family="sans-serif" font-size="11" lengthAdjust="spacingAndGlyphs" textLength="98" x="247.5" y="164.4292">getChildren(): list</text><!--MD5=[91a2f742514a868debe517da40280412]
class ActiveEntity--><rect fill="#FEFECE" filter="url(#fbhzw5crfox59)" height="73.6094" id="ActiveEntity" style="stroke: #A80036; stroke-width: 1.5;" width="111" x="37.5" y="232"/><ellipse cx="55.65" cy="248" fill="#ADD1B2" rx="11" ry="11" style="stroke: #A80036; stroke-width: 1.0;"/><path d="M58.6188,253.6406 Q58.0406,253.9375 57.4,254.0781 Q56.7594,254.2344 56.0563,254.2344 Q53.5563,254.2344 52.2281,252.5938 Q50.9156,250.9375 50.9156,247.8125 Q50.9156,244.6875 52.2281,243.0313 Q53.5563,241.375 56.0563,241.375 Q56.7594,241.375 57.4,241.5313 Q58.0563,241.6875 58.6188,241.9844 L58.6188,244.7031 Q57.9938,244.125 57.4,243.8594 Q56.8063,243.5781 56.1813,243.5781 Q54.8375,243.5781 54.15,244.6563 Q53.4625,245.7188 53.4625,247.8125 Q53.4625,249.9063 54.15,250.9844 Q54.8375,252.0469 56.1813,252.0469 Q56.8063,252.0469 57.4,251.7813 Q57.9938,251.5 58.6188,250.9219 L58.6188,253.6406 Z "/><text fill="#000000" font-family="sans-serif" font-size="12" lengthAdjust="spacingAndGlyphs" textLength="72" x="70.35" y="252.1543">ActiveEntity</text><line style="stroke: #A80036; stroke-width: 1.5;" x1="38.5" x2="147.5" y1="264" y2="264"/><polygon fill="none" points="48.5,270,52.5,274,48.5,278,44.5,274" style="stroke: #B38D22; stroke-width: 1.0;"/><text fill="#000000" font-family="sans-serif" font-size="11" lengthAdjust="spacingAndGlyphs" textLength="84" x="57.5" y="278.2104">m_state: State</text><line style="stroke: #A80036; stroke-width: 1.5;" x1="38.5" x2="147.5" y1="284.8047" y2="284.8047"/><ellipse cx="48.5" cy="295.8047" fill="#84BE84" rx="3" ry="3" style="stroke: #038048; stroke-width: 1.0;"/><text fill="#000000" font-family="sans-serif" font-size="11" lengthAdjust="spacingAndGlyphs" textLength="85" x="57.5" y="299.0151">processEvent()</text><!--MD5=[893d7e8a748f2e7ef4ce05e38b238b69]
class NamedPrimitive--><rect fill="#FEFECE" filter="url(#fbhzw5crfox59)" height="60.8047" id="NamedPrimitive" style="stroke: #A80036; stroke-width: 1.5;" width="139" x="183.5" y="238.5"/><ellipse cx="198.5" cy="254.5" fill="#ADD1B2" rx="11" ry="11" style="stroke: #A80036; stroke-width: 1.0;"/><path d="M201.4688,260.1406 Q200.8906,260.4375 200.25,260.5781 Q199.6094,260.7344 198.9063,260.7344 Q196.4063,260.7344 195.0781,259.0938 Q193.7656,257.4375 193.7656,254.3125 Q193.7656,251.1875 195.0781,249.5313 Q196.4063,247.875 198.9063,247.875 Q199.6094,247.875 200.25,248.0313 Q200.9063,248.1875 201.4688,248.4844 L201.4688,251.2031 Q200.8438,250.625 200.25,250.3594 Q199.6563,250.0781 199.0313,250.0781 Q197.6875,250.0781 197,251.1563 Q196.3125,252.2188 196.3125,254.3125 Q196.3125,256.4063 197,257.4844 Q197.6875,258.5469 199.0313,258.5469 Q199.6563,258.5469 200.25,258.2813 Q200.8438,258 201.4688,257.4219 L201.4688,260.1406 Z "/><text fill="#000000" font-family="sans-serif" font-size="12" lengthAdjust="spacingAndGlyphs" textLength="96" x="212.5" y="258.6543">NamedPrimitive</text><rect fill="#FFFFFF" height="15.9688" style="stroke: #000000; stroke-width: 1.0; stroke-dasharray: 2.0,2.0;" width="9" x="316.5" y="235.5"/><text fill="#000000" font-family="sans-serif" font-size="12" font-style="italic" lengthAdjust="spacingAndGlyphs" textLength="7" x="317.5" y="247.6387">T</text><line style="stroke: #A80036; stroke-width: 1.5;" x1="184.5" x2="321.5" y1="270.5" y2="270.5"/><polygon fill="none" points="194.5,276.5,198.5,280.5,194.5,284.5,190.5,280.5" style="stroke: #B38D22; stroke-width: 1.0;"/><text fill="#000000" font-family="sans-serif" font-size="11" lengthAdjust="spacingAndGlyphs" textLength="62" x="203.5" y="284.7104">m_value: T</text><line style="stroke: #A80036; stroke-width: 1.5;" x1="184.5" x2="321.5" y1="291.3047" y2="291.3047"/><!--MD5=[78ed12207143f91d5f83e865ebe617e5]
class NamedMethod--><rect fill="#FEFECE" filter="url(#fbhzw5crfox59)" height="60.8047" id="NamedMethod" style="stroke: #A80036; stroke-width: 1.5;" width="123" x="395.5" y="238.5"/><ellipse cx="410.5" cy="254.5" fill="#ADD1B2" rx="11" ry="11" style="stroke: #A80036; stroke-width: 1.0;"/><path d="M413.4688,260.1406 Q412.8906,260.4375 412.25,260.5781 Q411.6094,260.7344 410.9063,260.7344 Q408.4063,260.7344 407.0781,259.0938 Q405.7656,257.4375 405.7656,254.3125 Q405.7656,251.1875 407.0781,249.5313 Q408.4063,247.875 410.9063,247.875 Q411.6094,247.875 412.25,248.0313 Q412.9063,248.1875 413.4688,248.4844 L413.4688,251.2031 Q412.8438,250.625 412.25,250.3594 Q411.6563,250.0781 411.0313,250.0781 Q409.6875,250.0781 409,251.1563 Q408.3125,252.2188 408.3125,254.3125 Q408.3125,256.4063 409,257.4844 Q409.6875,258.5469 411.0313,258.5469 Q411.6563,258.5469 412.25,258.2813 Q412.8438,258 413.4688,257.4219 L413.4688,260.1406 Z "/><text fill="#000000" font-family="sans-serif" font-size="12" lengthAdjust="spacingAndGlyphs" textLength="91" x="424.5" y="258.6543">NamedMethod</text><line style="stroke: #A80036; stroke-width: 1.5;" x1="396.5" x2="517.5" y1="270.5" y2="270.5"/><line style="stroke: #A80036; stroke-width: 1.5;" x1="396.5" x2="517.5" y1="278.5" y2="278.5"/><ellipse cx="406.5" cy="289.5" fill="#84BE84" rx="3" ry="3" style="stroke: #038048; stroke-width: 1.0;"/><text fill="#000000" font-family="sans-serif" font-size="11" lengthAdjust="spacingAndGlyphs" textLength="52" x="415.5" y="292.7104">execute()</text><!--MD5=[0b6ddd9bc9fd00b0d139ee63580ad01c]
class NamedService--><rect fill="#FEFECE" filter="url(#fbhzw5crfox59)" height="73.6094" id="NamedService" style="stroke: #A80036; stroke-width: 1.5;" width="121" x="168.5" y="388"/><ellipse cx="183.5" cy="404" fill="#ADD1B2" rx="11" ry="11" style="stroke: #A80036; stroke-width: 1.0;"/><path d="M186.4688,409.6406 Q185.8906,409.9375 185.25,410.0781 Q184.6094,410.2344 183.9063,410.2344 Q181.4063,410.2344 180.0781,408.5938 Q178.7656,406.9375 178.7656,403.8125 Q178.7656,400.6875 180.0781,399.0313 Q181.4063,397.375 183.9063,397.375 Q184.6094,397.375 185.25,397.5313 Q185.9063,397.6875 186.4688,397.9844 L186.4688,400.7031 Q185.8438,400.125 185.25,399.8594 Q184.6563,399.5781 184.0313,399.5781 Q182.6875,399.5781 182,400.6563 Q181.3125,401.7188 181.3125,403.8125 Q181.3125,405.9063 182,406.9844 Q182.6875,408.0469 184.0313,408.0469 Q184.6563,408.0469 185.25,407.7813 Q185.8438,407.5 186.4688,406.9219 L186.4688,409.6406 Z "/><text fill="#000000" font-family="sans-serif" font-size="12" lengthAdjust="spacingAndGlyphs" textLength="89" x="197.5" y="408.1543">NamedService</text><line style="stroke: #A80036; stroke-width: 1.5;" x1="169.5" x2="288.5" y1="420" y2="420"/><line style="stroke: #A80036; stroke-width: 1.5;" x1="169.5" x2="288.5" y1="428" y2="428"/><ellipse cx="179.5" cy="439" fill="#84BE84" rx="3" ry="3" style="stroke: #038048; stroke-width: 1.0;"/><text fill="#000000" font-family="sans-serif" font-size="11" lengthAdjust="spacingAndGlyphs" textLength="50" x="188.5" y="442.2104">onStart()</text><ellipse cx="179.5" cy="451.8047" fill="#84BE84" rx="3" ry="3" style="stroke: #038048; stroke-width: 1.0;"/><text fill="#000000" font-family="sans-serif" font-size="11" lengthAdjust="spacingAndGlyphs" textLength="48" x="188.5" y="455.0151">onStop()</text><!--MD5=[f759974681ebcaa9ca04c67a6c60d737]
class LuaProxy--><rect fill="#FEFECE" filter="url(#fbhzw5crfox59)" height="73.6094" id="LuaProxy" style="stroke: #A80036; stroke-width: 1.5;" width="156" x="913" y="388"/><ellipse cx="954.1" cy="404" fill="#ADD1B2" rx="11" ry="11" style="stroke: #A80036; stroke-width: 1.0;"/><path d="M957.0688,409.6406 Q956.4906,409.9375 955.85,410.0781 Q955.2094,410.2344 954.5063,410.2344 Q952.0063,410.2344 950.6781,408.5938 Q949.3656,406.9375 949.3656,403.8125 Q949.3656,400.6875 950.6781,399.0313 Q952.0063,397.375 954.5063,397.375 Q955.2094,397.375 955.85,397.5313 Q956.5063,397.6875 957.0688,397.9844 L957.0688,400.7031 Q956.4438,400.125 955.85,399.8594 Q955.2563,399.5781 954.6313,399.5781 Q953.2875,399.5781 952.6,400.6563 Q951.9125,401.7188 951.9125,403.8125 Q951.9125,405.9063 952.6,406.9844 Q953.2875,408.0469 954.6313,408.0469 Q955.2563,408.0469 955.85,407.7813 Q956.4438,407.5 957.0688,406.9219 L957.0688,409.6406 Z "/><text fill="#000000" font-family="sans-serif" font-size="12" lengthAdjust="spacingAndGlyphs" textLength="55" x="973.9" y="408.1543">LuaProxy</text><rect fill="#FFFFFF" height="15.9688" style="stroke: #000000; stroke-width: 1.0; stroke-dasharray: 2.0,2.0;" width="9" x="1063" y="385"/><text fill="#000000" font-family="sans-serif" font-size="12" font-style="italic" lengthAdjust="spacingAndGlyphs" textLength="7" x="1064" y="397.1387">T</text><line style="stroke: #A80036; stroke-width: 1.5;" x1="914" x2="1068" y1="420" y2="420"/><rect fill="none" height="6" style="stroke: #C82930; stroke-width: 1.0;" width="6" x="921" y="428"/><text fill="#000000" font-family="sans-serif" font-size="11" lengthAdjust="spacingAndGlyphs" textLength="130" x="933" y="434.2104">m_weak: weak_ptr&lt;T&gt;</text><line style="stroke: #A80036; stroke-width: 1.5;" x1="914" x2="1068" y1="440.8047" y2="440.8047"/><ellipse cx="924" cy="451.8047" fill="#84BE84" rx="3" ry="3" style="stroke: #038048; stroke-width: 1.0;"/><text fill="#000000" font-family="sans-serif" font-size="11" lengthAdjust="spacingAndGlyphs" textLength="125" x="933" y="455.0151">lock(): shared_ptr&lt;T&gt;</text><!--MD5=[44b030c8d6bbc778abf20c0cb44f854f]
class LuaEngine--><rect fill="#FEFECE" filter="url(#fbhzw5crfox59)" height="73.6094" id="LuaEngine" style="stroke: #A80036; stroke-width: 1.5;" width="122" x="756" y="388"/><ellipse cx="782.25" cy="404" fill="#ADD1B2" rx="11" ry="11" style="stroke: #A80036; stroke-width: 1.0;"/><path d="M785.2188,409.6406 Q784.6406,409.9375 784,410.0781 Q783.3594,410.2344 782.6563,410.2344 Q780.1563,410.2344 778.8281,408.5938 Q777.5156,406.9375 777.5156,403.8125 Q777.5156,400.6875 778.8281,399.0313 Q780.1563,397.375 782.6563,397.375 Q783.3594,397.375 784,397.5313 Q784.6563,397.6875 785.2188,397.9844 L785.2188,400.7031 Q784.5938,400.125 784,399.8594 Q783.4063,399.5781 782.7813,399.5781 Q781.4375,399.5781 780.75,400.6563 Q780.0625,401.7188 780.0625,403.8125 Q780.0625,405.9063 780.75,406.9844 Q781.4375,408.0469 782.7813,408.0469 Q783.4063,408.0469 784,407.7813 Q784.5938,407.5 785.2188,406.9219 L785.2188,409.6406 Z "/><text fill="#000000" font-family="sans-serif" font-size="12" lengthAdjust="spacingAndGlyphs" textLength="65" x="798.75" y="408.1543">LuaEngine</text><line style="stroke: #A80036; stroke-width: 1.5;" x1="757" x2="877" y1="420" y2="420"/><polygon fill="none" points="767,426,771,430,767,434,763,430" style="stroke: #B38D22; stroke-width: 1.0;"/><text fill="#000000" font-family="sans-serif" font-size="11" lengthAdjust="spacingAndGlyphs" textLength="96" x="776" y="434.2104">m_lua: sol::state</text><line style="stroke: #A80036; stroke-width: 1.5;" x1="757" x2="877" y1="440.8047" y2="440.8047"/><ellipse cx="767" cy="451.8047" fill="#84BE84" rx="3" ry="3" style="stroke: #038048; stroke-width: 1.0;"/><text fill="#000000" font-family="sans-serif" font-size="11" lengthAdjust="spacingAndGlyphs" textLength="86" x="776" y="455.0151">executeString()</text><!--MD5=[ef99afdd4f6fefa7b9a4a3e38ea01b6b]
class NamedLuaMethod--><rect fill="#FEFECE" filter="url(#fbhzw5crfox59)" height="60.8047" id="NamedLuaMethod" style="stroke: #A80036; stroke-width: 1.5;" width="145" x="575.5" y="394.5"/><ellipse cx="590.5" cy="410.5" fill="#ADD1B2" rx="11" ry="11" style="stroke: #A80036; stroke-width: 1.0;"/><path d="M593.4688,416.1406 Q592.8906,416.4375 592.25,416.5781 Q591.6094,416.7344 590.9063,416.7344 Q588.4063,416.7344 587.0781,415.0938 Q585.7656,413.4375 585.7656,410.3125 Q585.7656,407.1875 587.0781,405.5313 Q588.4063,403.875 590.9063,403.875 Q591.6094,403.875 592.25,404.0313 Q592.9063,404.1875 593.4688,404.4844 L593.4688,407.2031 Q592.8438,406.625 592.25,406.3594 Q591.6563,406.0781 591.0313,406.0781 Q589.6875,406.0781 589,407.1563 Q588.3125,408.2188 588.3125,410.3125 Q588.3125,412.4063 589,413.4844 Q589.6875,414.5469 591.0313,414.5469 Q591.6563,414.5469 592.25,414.2813 Q592.8438,414 593.4688,413.4219 L593.4688,416.1406 Z "/><text fill="#000000" font-family="sans-serif" font-size="12" lengthAdjust="spacingAndGlyphs" textLength="113" x="604.5" y="414.6543">NamedLuaMethod</text><line style="stroke: #A80036; stroke-width: 1.5;" x1="576.5" x2="719.5" y1="426.5" y2="426.5"/><polygon fill="none" points="586.5,432.5,590.5,436.5,586.5,440.5,582.5,436.5" style="stroke: #B38D22; stroke-width: 1.0;"/><text fill="#000000" font-family="sans-serif" font-size="11" lengthAdjust="spacingAndGlyphs" textLength="90" x="595.5" y="440.7104">m_script: string</text><line style="stroke: #A80036; stroke-width: 1.5;" x1="576.5" x2="719.5" y1="447.3047" y2="447.3047"/><path d="M554,241.5 L554,296.8984 A0,0 0 0 0 554,296.8984 L752,296.8984 A0,0 0 0 0 752,296.8984 L752,251.5 L742,241.5 L607.66,241.5 L473.21,171.09 L599.66,241.5 L554,241.5 A0,0 0 0 0 554,241.5 " fill="#FBFB77" filter="url(#fbhzw5crfox59)" style="stroke: #A80036; stroke-width: 1.0;"/><path d="M742,241.5 L742,251.5 L752,251.5 L742,241.5 " fill="#FBFB77" style="stroke: #A80036; stroke-width: 1.0;"/><text fill="#000000" font-family="sans-serif" font-size="13" lengthAdjust="spacingAndGlyphs" textLength="101" x="560" y="258.5669">Reflexivity Core:</text><text fill="#000000" font-family="sans-serif" font-size="13" lengthAdjust="spacingAndGlyphs" textLength="177" x="560" y="273.6997">Allows tree-based discovery</text><text fill="#000000" font-family="sans-serif" font-size="13" lengthAdjust="spacingAndGlyphs" textLength="158" x="560" y="288.8325">and dynamic interaction.</text><!--MD5=[28a90891e726fe2260828c4c17950c72]
reverse link NamedObject to ActiveEntity--><path d="M252.2,180.95 C216.2,200.64 178.35,221.33 148.59,237.6 " fill="none" id="NamedObject&lt;-ActiveEntity" style="stroke: #A80036; stroke-width: 1.0;"/><polygon fill="none" points="249.34,174.54,270.24,171.09,256.05,186.83,249.34,174.54" style="stroke: #A80036; stroke-width: 1.0;"/><!--MD5=[c157898a96e100eb85be21d3b2bd916e]
reverse link NamedObject to NamedPrimitive--><path d="M315.7,187.23 C301.77,205.18 287.56,223.49 276.2,238.12 " fill="none" id="NamedObject&lt;-NamedPrimitive" style="stroke: #A80036; stroke-width: 1.0;"/><polygon fill="none" points="310.27,182.81,328.07,171.31,321.33,191.4,310.27,182.81" style="stroke: #A80036; stroke-width: 1.0;"/><!--MD5=[1419e37ab0e0db13c4c5c0c3487aca64]
reverse link NamedObject to NamedMethod--><path d="M412.23,188.87 C422.09,206.29 432.07,223.93 440.09,238.12 " fill="none" id="NamedObject&lt;-NamedMethod" style="stroke: #A80036; stroke-width: 1.0;"/><polygon fill="none" points="406.05,192.16,402.29,171.31,418.23,185.27,406.05,192.16" style="stroke: #A80036; stroke-width: 1.0;"/><!--MD5=[b26b8f4b9b6fffe37d058d4d79e349c9]
reverse link NamedObject to NamedService--><path d="M368.87,191.53 C365.36,227.7 357.41,270.71 340,306 C324.38,337.66 297.4,366.63 273.95,387.95 " fill="none" id="NamedObject&lt;-NamedService" style="stroke: #A80036; stroke-width: 1.0;"/><polygon fill="none" points="361.91,190.8,370.45,171.41,375.87,191.9,361.91,190.8" style="stroke: #A80036; stroke-width: 1.0;"/><!--MD5=[5efd381c90d0fc572d1bee8aa814167f]
reverse link ActiveEntity to NamedService--><path d="M138.32,321.32 C157.58,343.12 179.57,368.03 197.08,387.85 " fill="none" id="ActiveEntity&lt;-NamedService" style="stroke: #A80036; stroke-width: 1.0;"/><polygon fill="none" points="132.88,325.73,124.89,306.11,143.37,316.46,132.88,325.73" style="stroke: #A80036; stroke-width: 1.0;"/><!--MD5=[b882febf0a5c1af03402272308606e87]
reverse link NamedMethod to NamedLuaMethod--><path d="M509.4,312.25 C541.72,338.31 582.38,371.09 611.29,394.4 " fill="none" id="NamedMethod&lt;-NamedLuaMethod" style="stroke: #A80036; stroke-width: 1.0;"/><polygon fill="none" points="505,317.7,493.83,299.69,513.79,306.8,505,317.7" style="stroke: #A80036; stroke-width: 1.0;"/><!--MD5=[7842414180b36680e3b0fd60145525b1]
link LuaProxy to NamedObject--><path d="M958.97,387.94 C918.85,344.87 846.09,273.48 770,232 C692.37,189.68 597.62,161.3 519.94,143.2 " fill="none" id="LuaProxy-&gt;NamedObject" style="stroke: #A80036; stroke-width: 1.0; stroke-dasharray: 7.0,7.0;"/><polygon fill="#A80036" points="514.85,142.02,522.715,147.948,519.721,143.1485,524.5206,140.1545,514.85,142.02" style="stroke: #A80036; stroke-width: 1.0;"/><text fill="#000000" font-family="sans-serif" font-size="13" lengthAdjust="spacingAndGlyphs" textLength="37" x="874" y="273.5669">wraps</text><!--MD5=[df40cbc3d73a42ededfb2d24d5ab1c5c]
@startuml
package "quasar::named" {
    class NamedObject {
        # m_name: string
        # m_children: list<shared_ptr<NamedObject>>
        # m_mutex: recursive_mutex
        + getName(): string
        + getChildren(): list
    }

    class ActiveEntity {
        # m_state: State
        + processEvent()
    }

    class NamedPrimitive<T> {
        # m_value: T
    }

    class NamedMethod {
        + execute()
    }

    class NamedService {
        + onStart()
        + onStop()
    }

    NamedObject <|- - ActiveEntity
    NamedObject <|- - NamedPrimitive
    NamedObject <|- - NamedMethod
    NamedObject <|- - NamedService
    
    ActiveEntity <|- - NamedService
}

package "quasar::scripting" {
    class LuaProxy<T> {
        - m_weak: weak_ptr<T>
        + lock(): shared_ptr<T>
    }
    
    class LuaEngine {
        # m_lua: sol::state
        + executeString()
    }
    
    class NamedLuaMethod {
        # m_script: string
    }
    
    NamedMethod <|- - NamedLuaMethod
    LuaProxy ..> NamedObject : wraps
}

note bottom of NamedObject
  Reflexivity Core:
  Allows tree-based discovery
  and dynamic interaction.
end note
@enduml

PlantUML version 1.2020.02(Sun Mar 01 11:22:07 CET 2020)
(GPL source distribution)
Java Runtime: OpenJDK Runtime Environment
JVM: OpenJDK 64-Bit Server VM
Java Version: 25.0.3+9-2-deb13u1-Debian
Operating System: Linux
Default Encoding: UTF-8
Language: fr
Country: FR
--></g></svg>